<svg xmlns="http://www.w3.org/2000/svg" width="1400" height="900" viewBox="0 0 1400 900" role="img" aria-labelledby="title desc">
  <title id="title">Research overview map</title>
  <desc id="desc">A structured overview of Wanglong Lu's 28-publication research portfolio across generative vision, restoration, efficient adaptation, assistive vision, and applied ML systems.</desc>
  <defs>
    <style>
      .bg { fill: #f7f8f3; }
      .grid { stroke: #d9ded5; stroke-width: 1; opacity: 0.55; }
      .panel { fill: #ffffff; stroke: #d9ded5; stroke-width: 2; }
      .panel-soft { fill: #fbfcf8; stroke: #c9d1c7; stroke-width: 2; }
      .ink { fill: #20221f; }
      .muted { fill: #626a64; }
      .blue { fill: #2c638f; }
      .green { fill: #55766a; }
      .gold { fill: #a8752a; }
      .red { fill: #a15045; }
      .purple { fill: #6d5f88; }
      .blue-soft { fill: #e6eef4; }
      .green-soft { fill: #e8eee7; }
      .gold-soft { fill: #f4ecdc; }
      .red-soft { fill: #f2e8e6; }
      .purple-soft { fill: #ece9f3; }
      .line { fill: none; stroke: #7e8981; stroke-width: 2.5; stroke-linecap: round; stroke-linejoin: round; }
      .line-strong { fill: none; stroke: #2c638f; stroke-width: 3.5; stroke-linecap: round; stroke-linejoin: round; }
      .sans { font-family: -apple-system, BlinkMacSystemFont, Segoe UI, Helvetica, Arial, sans-serif; letter-spacing: 0; }
      .mono { font-family: SFMono-Regular, Consolas, Liberation Mono, Menlo, monospace; letter-spacing: 0; }
      .h1 { font-size: 40px; font-weight: 850; }
      .h2 { font-size: 24px; font-weight: 820; }
      .body { font-size: 18px; font-weight: 520; }
      .small { font-size: 15px; font-weight: 640; }
      .tiny { font-size: 13px; font-weight: 760; }
      .tag { fill: #ffffff; font-size: 13px; font-weight: 780; }
    </style>
    <marker id="arrow" markerWidth="10" markerHeight="10" refX="8" refY="5" orient="auto" markerUnits="strokeWidth">
      <path d="M0 0 L10 5 L0 10 z" fill="#7e8981"/>
    </marker>
    <marker id="arrow-blue" markerWidth="10" markerHeight="10" refX="8" refY="5" orient="auto" markerUnits="strokeWidth">
      <path d="M0 0 L10 5 L0 10 z" fill="#2c638f"/>
    </marker>
  </defs>

  <rect class="bg" width="1400" height="900"/>
  <g opacity="0.5">
    <path class="grid" d="M80 148 H1320"/>
    <path class="grid" d="M80 330 H1320"/>
    <path class="grid" d="M80 512 H1320"/>
    <path class="grid" d="M80 694 H1320"/>
    <path class="grid" d="M250 86 V820"/>
    <path class="grid" d="M700 86 V820"/>
    <path class="grid" d="M1150 86 V820"/>
  </g>

  <text class="mono tiny green" x="76" y="58">// research overview</text>
  <text class="sans h1 ink" x="76" y="106">Research Portfolio Map</text>
  <text class="sans body muted" x="78" y="138">Generative vision, restoration, efficient adaptation, assistive vision, and production ML.</text>

  <g transform="translate(850 48)">
    <rect class="panel-soft" width="118" height="66" rx="10"/>
    <text class="mono tiny muted" x="16" y="25">publications</text>
    <text class="sans h2 blue" x="16" y="54">28</text>
  </g>
  <g transform="translate(982 48)">
    <rect class="panel-soft" width="118" height="66" rx="10"/>
    <text class="mono tiny muted" x="16" y="25">lead author</text>
    <text class="sans h2 green" x="16" y="54">8</text>
  </g>
  <g transform="translate(1114 48)">
    <rect class="panel-soft" width="118" height="66" rx="10"/>
    <text class="mono tiny muted" x="16" y="25">IEEE trans.</text>
    <text class="sans h2 red" x="16" y="54">4</text>
  </g>
  <g transform="translate(1246 48)">
    <rect class="panel-soft" width="118" height="66" rx="10"/>
    <text class="mono tiny muted" x="16" y="25">flagship</text>
    <text class="sans h2 gold" x="16" y="54">2</text>
  </g>

  <g transform="translate(488 246)">
    <rect class="panel-soft" width="424" height="198" rx="14"/>
    <rect x="24" y="22" width="376" height="54" rx="10" fill="#20221f"/>
    <text class="mono tiny" x="48" y="55" fill="#f7c870">Wanglong Lu / research core</text>
    <text class="sans h2 ink" x="42" y="116">Scalable Multimodal</text>
    <text class="sans h2 ink" x="42" y="148">and Generative AI</text>
    <text class="sans body muted" x="42" y="176">high resolution, efficient, controllable</text>
    <text class="sans body muted" x="42" y="200">and deployable</text>
  </g>

  <path class="line-strong" d="M700 444 C700 492 700 532 700 578" marker-end="url(#arrow-blue)"/>
  <path class="line" d="M488 300 C418 286 374 252 332 210" marker-end="url(#arrow)"/>
  <path class="line" d="M488 388 C410 410 374 456 332 514" marker-end="url(#arrow)"/>
  <path class="line" d="M912 300 C982 286 1026 252 1068 210" marker-end="url(#arrow)"/>
  <path class="line" d="M912 388 C990 410 1026 456 1068 514" marker-end="url(#arrow)"/>

  <g transform="translate(76 178)">
    <rect class="panel" width="376" height="204" rx="12"/>
    <rect class="blue-soft" x="22" y="22" width="64" height="64" rx="10"/>
    <path d="M37 68 L54 39 L71 68 Z" fill="#2c638f"/>
    <path d="M34 77 H74" stroke="#2c638f" stroke-width="5" stroke-linecap="round"/>
    <text class="sans h2 ink" x="106" y="48">Generative Editing</text>
    <text class="sans h2 ink" x="106" y="78">and Inpainting</text>
    <text class="sans small muted" x="24" y="118">UltraDiffEdit, FACEMUG, TextDoctor, GRIG</text>
    <text class="sans small muted" x="24" y="143">semantic control, repair, face editing</text>
    <rect class="blue" x="24" y="164" width="72" height="24" rx="6"/>
    <text class="sans tag" x="41" y="181">TNNLS</text>
    <rect class="purple" x="106" y="164" width="72" height="24" rx="6"/>
    <text class="sans tag" x="124" y="181">TVCG</text>
    <rect class="green" x="188" y="164" width="96" height="24" rx="6"/>
    <text class="sans tag" x="205" y="181">TCSVT</text>
  </g>

  <g transform="translate(76 454)">
    <rect class="panel" width="376" height="204" rx="12"/>
    <rect class="green-soft" x="22" y="22" width="64" height="64" rx="10"/>
    <path d="M34 60 C48 38 66 38 78 60 C66 82 48 82 34 60 Z" fill="#55766a"/>
    <circle cx="56" cy="60" r="9" fill="#ffffff"/>
    <text class="sans h2 ink" x="106" y="48">Restoration and</text>
    <text class="sans h2 ink" x="106" y="78">Super-Resolution</text>
    <text class="sans small muted" x="24" y="118">UHDRes, EchoSR, VSPBFR, Hazy</text>
    <text class="sans small muted" x="24" y="143">dual-domain priors and lightweight SR</text>
    <rect class="red" x="24" y="164" width="78" height="24" rx="6"/>
    <text class="sans tag" x="42" y="181">TCSVT</text>
    <rect class="green" x="112" y="164" width="98" height="24" rx="6"/>
    <text class="sans tag" x="128" y="181">Info Fusion</text>
    <rect class="blue" x="220" y="164" width="54" height="24" rx="6"/>
    <text class="sans tag" x="236" y="181">PR</text>
  </g>

  <g transform="translate(948 178)">
    <rect class="panel" width="376" height="204" rx="12"/>
    <rect class="gold-soft" x="22" y="22" width="64" height="64" rx="10"/>
    <path d="M36 72 L36 48 L54 36 L72 48 L72 72 L54 84 Z" fill="#a8752a"/>
    <path d="M45 58 H63 M54 47 V74" stroke="#ffffff" stroke-width="5" stroke-linecap="round"/>
    <text class="sans h2 ink" x="106" y="48">Efficient Adaptation</text>
    <text class="sans h2 ink" x="106" y="78">and Representation</text>
    <text class="sans small muted" x="24" y="118">AdaMSS, TEG, category-consistent learning</text>
    <text class="sans small muted" x="24" y="143">parameter-efficient updates and compact models</text>
    <rect class="gold" x="24" y="164" width="86" height="24" rx="6"/>
    <text class="sans tag" x="41" y="181">NeurIPS</text>
    <rect class="blue" x="120" y="164" width="58" height="24" rx="6"/>
    <text class="sans tag" x="137" y="181">PEFT</text>
    <rect class="green" x="188" y="164" width="118" height="24" rx="6"/>
    <text class="sans tag" x="206" y="181">Neurocomputing</text>
  </g>

  <g transform="translate(948 454)">
    <rect class="panel" width="376" height="204" rx="12"/>
    <rect class="red-soft" x="22" y="22" width="64" height="64" rx="10"/>
    <path d="M38 76 C38 50 50 38 56 38 C62 38 74 50 74 76" fill="none" stroke="#a15045" stroke-width="8" stroke-linecap="round"/>
    <circle cx="43" cy="78" r="8" fill="#a15045"/>
    <circle cx="69" cy="78" r="8" fill="#a15045"/>
    <text class="sans h2 ink" x="106" y="48">Multimodal, Medical</text>
    <text class="sans h2 ink" x="106" y="78">and Assistive Vision</text>
    <text class="sans small muted" x="24" y="118">prosthetic grasping, blinking, vessels</text>
    <text class="sans small muted" x="24" y="143">human-centered sensing and autonomy</text>
    <rect class="purple" x="24" y="164" width="62" height="24" rx="6"/>
    <text class="sans tag" x="42" y="181">ECCV</text>
    <rect class="blue" x="96" y="164" width="54" height="24" rx="6"/>
    <text class="sans tag" x="112" y="181">ETRA</text>
    <rect class="green" x="160" y="164" width="76" height="24" rx="6"/>
    <text class="sans tag" x="178" y="181">medical</text>
  </g>

  <g transform="translate(486 586)">
    <rect class="panel" width="428" height="126" rx="12"/>
    <rect class="purple-soft" x="24" y="22" width="60" height="60" rx="10"/>
    <rect x="38" y="40" width="34" height="28" rx="5" fill="#6d5f88"/>
    <path d="M44 50 H66 M44 60 H59" stroke="#ffffff" stroke-width="4" stroke-linecap="round"/>
    <text class="sans h2 ink" x="106" y="49">Applied ML Systems</text>
    <text class="sans small muted" x="106" y="78">financial AI, verification, deployment</text>
    <rect class="purple" x="106" y="90" width="76" height="24" rx="6"/>
    <text class="sans tag" x="126" y="107">Nasdaq</text>
    <rect class="blue" x="192" y="90" width="106" height="24" rx="6"/>
    <text class="sans tag" x="209" y="107">deployment</text>
  </g>

  <g transform="translate(120 754)">
    <rect class="panel-soft" width="1160" height="86" rx="12"/>
    <text class="mono tiny muted" x="28" y="32">timeline:</text>
    <text class="sans small ink" x="120" y="32">2020 medical imaging</text>
    <text class="sans small ink" x="300" y="32">2021 recognition</text>
    <text class="sans small ink" x="455" y="32">2022 pruning and inpainting</text>
    <text class="sans small ink" x="705" y="32">2023-2024 editing and restoration</text>
    <text class="sans small ink" x="1005" y="32">2025-2026 scalable GenAI</text>
    <path d="M120 58 H1080" stroke="#b9c2b7" stroke-width="3" stroke-linecap="round"/>
    <circle cx="120" cy="58" r="7" fill="#55766a"/>
    <circle cx="300" cy="58" r="7" fill="#55766a"/>
    <circle cx="455" cy="58" r="7" fill="#a8752a"/>
    <circle cx="705" cy="58" r="7" fill="#2c638f"/>
    <circle cx="1005" cy="58" r="7" fill="#a15045"/>
  </g>
</svg>
